<mxfile host="app.diagrams.net" modified="2023-07-31T15:11:49.451Z" agent="Mozilla/5.0 (Windows NT 10.0; Win64; x64) AppleWebKit/537.36 (KHTML, like Gecko) Chrome/115.0.0.0 Safari/537.36" etag="3vwpYmwIXH8DKOcy8w_W" version="21.6.6" type="google">
  <diagram name="Page-1" id="JlKHMHlBap_Og0pMK80h">
    <mxGraphModel dx="2074" dy="1132" grid="1" gridSize="10" guides="1" tooltips="1" connect="1" arrows="1" fold="1" page="1" pageScale="1" pageWidth="850" pageHeight="1100" math="0" shadow="0">
      <root>
        <mxCell id="0" />
        <mxCell id="1" parent="0" />
        <mxCell id="LEfJWrgwoddAjbefwomi-3" value="" style="line;strokeWidth=1;html=1;" parent="1" vertex="1">
          <mxGeometry x="282" y="389" width="100" height="10" as="geometry" />
        </mxCell>
        <mxCell id="LEfJWrgwoddAjbefwomi-4" value="" style="line;strokeWidth=1;html=1;" parent="1" vertex="1">
          <mxGeometry x="282" y="367" width="101" height="10" as="geometry" />
        </mxCell>
        <mxCell id="LEfJWrgwoddAjbefwomi-5" value="" style="rounded=0;whiteSpace=wrap;html=1;rotation=90;align=left;" parent="1" vertex="1">
          <mxGeometry x="352.63" y="261.88" width="125.5" height="169.75" as="geometry" />
        </mxCell>
        <mxCell id="LEfJWrgwoddAjbefwomi-6" value="reset" style="text;html=1;align=center;verticalAlign=middle;resizable=0;points=[];autosize=1;strokeColor=none;fillColor=none;" parent="1" vertex="1">
          <mxGeometry x="324" y="358.5" width="46" height="27" as="geometry" />
        </mxCell>
        <mxCell id="LEfJWrgwoddAjbefwomi-7" value="clock" style="text;html=1;align=center;verticalAlign=middle;resizable=0;points=[];autosize=1;strokeColor=none;fillColor=none;" parent="1" vertex="1">
          <mxGeometry x="325" y="380.5" width="46" height="27" as="geometry" />
        </mxCell>
        <mxCell id="LEfJWrgwoddAjbefwomi-8" value="&lt;font style=&quot;font-size: 12px;&quot;&gt;DEBOUNCER&lt;/font&gt;" style="text;html=1;align=center;verticalAlign=middle;resizable=0;points=[];autosize=1;strokeColor=none;fillColor=none;fontSize=10;" parent="1" vertex="1">
          <mxGeometry x="320" y="259" width="100" height="30" as="geometry" />
        </mxCell>
        <mxCell id="LEfJWrgwoddAjbefwomi-9" value="debouncedOutput" style="text;html=1;strokeColor=none;fillColor=none;align=left;verticalAlign=middle;whiteSpace=wrap;rounded=0;fontSize=12;" parent="1" vertex="1">
          <mxGeometry x="400" y="312" width="40" height="20" as="geometry" />
        </mxCell>
        <mxCell id="LEfJWrgwoddAjbefwomi-10" value="Debouncer" style="text;html=1;strokeColor=none;fillColor=none;align=left;verticalAlign=middle;whiteSpace=wrap;rounded=0;fontSize=13;" parent="1" vertex="1">
          <mxGeometry x="433" y="390" width="40" height="20" as="geometry" />
        </mxCell>
        <mxCell id="LEfJWrgwoddAjbefwomi-11" value="" style="group" parent="1" connectable="0" vertex="1">
          <mxGeometry x="240" y="358" width="47" height="48" as="geometry" />
        </mxCell>
        <mxCell id="LEfJWrgwoddAjbefwomi-12" value="reset" style="text;html=1;align=center;verticalAlign=middle;resizable=0;points=[];autosize=1;strokeColor=none;fillColor=none;" parent="LEfJWrgwoddAjbefwomi-11" vertex="1">
          <mxGeometry x="1" width="46" height="27" as="geometry" />
        </mxCell>
        <mxCell id="LEfJWrgwoddAjbefwomi-13" value="clock" style="text;html=1;align=center;verticalAlign=middle;resizable=0;points=[];autosize=1;strokeColor=none;fillColor=none;" parent="LEfJWrgwoddAjbefwomi-11" vertex="1">
          <mxGeometry y="21" width="46" height="27" as="geometry" />
        </mxCell>
        <mxCell id="LEfJWrgwoddAjbefwomi-14" value="rawInput" style="text;html=1;strokeColor=none;fillColor=none;align=left;verticalAlign=middle;whiteSpace=wrap;rounded=0;fontSize=12;" parent="1" vertex="1">
          <mxGeometry x="333" y="312" width="40" height="20" as="geometry" />
        </mxCell>
      </root>
    </mxGraphModel>
  </diagram>
</mxfile>
